ffmpeg started on 2016-12-07 at 13:16:36
Report written to "Output/x264/results/ffmpeg/Tcrowd_run_2160p50slow9000k.log"
Command line:
Tools/ffmpeg/ffmpeg -i Output/x264/encoded/crowd_run_2160p50slow9000k.mkv -c:v rawvideo -pix_fmt yuv420p Output/x264/transcoded/crowd_run_2160p50slow9000k.yuv
ffmpeg version N-82227-gdb23fde Copyright (c) 2000-2016 the FFmpeg developers
  built with gcc 5.4.0 (Ubuntu 5.4.0-6ubuntu1~16.04.2) 20160609
  configuration: --prefix=/home/jaroslav/ffmpeg_build --pkg-config-flags=--static --extra-cflags=-I/home/jaroslav/ffmpeg_build/include --extra-ldflags=-L/home/jaroslav/ffmpeg_build/lib --bindir=/home/jaroslav/bin --enable-gpl --enable-libass --enable-libfdk-aac --enable-libfreetype --enable-libmp3lame --enable-libopus --enable-libtheora --enable-libvorbis --enable-libvpx --enable-libx264 --enable-libx265 --enable-nvenc --enable-libmfx --enable-libxvid --enable-libgsm --enable-libopencore-amrnb --enable-version3 --enable-nonfree
  libavutil      55. 35.100 / 55. 35.100
  libavcodec     57. 66.101 / 57. 66.101
  libavformat    57. 57.100 / 57. 57.100
  libavdevice    57.  2.100 / 57.  2.100
  libavfilter     6. 66.100 /  6. 66.100
  libswscale      4.  3.100 /  4.  3.100
  libswresample   2.  4.100 /  2.  4.100
  libpostproc    54.  2.100 / 54.  2.100
Input #0, matroska,webm, from 'Output/x264/encoded/crowd_run_2160p50slow9000k.mkv':
  Metadata:
    ENCODER         : Lavf57.57.100
  Duration: 00:00:10.00, start: 0.000000, bitrate: 9028 kb/s
    Stream #0:0: Video: h264 (High), yuv420p(progressive), 3840x2160 [SAR 1:1 DAR 16:9], 50 fps, 50 tbr, 1k tbn, 100 tbc (default)
    Metadata:
      ENCODER         : Lavc57.66.101 libx264
      DURATION        : 00:00:10.000000000
Output #0, rawvideo, to 'Output/x264/transcoded/crowd_run_2160p50slow9000k.yuv':
  Metadata:
    encoder         : Lavf57.57.100
    Stream #0:0: Video: rawvideo (I420 / 0x30323449), yuv420p, 3840x2160 [SAR 1:1 DAR 16:9], q=2-31, 200 kb/s, 50 fps, 50 tbn, 50 tbc (default)
    Metadata:
      DURATION        : 00:00:10.000000000
      encoder         : Lavc57.66.101 rawvideo
Stream mapping:
  Stream #0:0 -> #0:0 (h264 (native) -> rawvideo (native))
Press [q] to stop, [?] for help
frame=   15 fps=0.0 q=-0.0 size=  182250kB time=00:00:00.30 bitrate=4976640.0kbits/s speed=0.586x    frame=   32 fps= 31 q=-0.0 size=  388800kB time=00:00:00.64 bitrate=4976640.0kbits/s speed=0.622x    frame=   49 fps= 32 q=-0.0 size=  595350kB time=00:00:00.98 bitrate=4976640.0kbits/s speed=0.634x    frame=   66 fps= 32 q=-0.0 size=  801900kB time=00:00:01.32 bitrate=4976640.0kbits/s speed=0.642x    frame=   83 fps= 32 q=-0.0 size= 1008450kB time=00:00:01.66 bitrate=4976640.0kbits/s speed=0.646x    frame=  100 fps= 32 q=-0.0 size= 1215000kB time=00:00:02.00 bitrate=4976640.0kbits/s speed=0.649x    frame=  117 fps= 33 q=-0.0 size= 1421550kB time=00:00:02.34 bitrate=4976640.0kbits/s speed=0.651x    frame=  134 fps= 33 q=-0.0 size= 1628100kB time=00:00:02.68 bitrate=4976640.0kbits/s speed=0.652x    frame=  151 fps= 33 q=-0.0 size= 1834650kB time=00:00:03.02 bitrate=4976640.0kbits/s speed=0.653x    frame=  168 fps= 33 q=-0.0 size= 2041200kB time=00:00:03.36 bitrate=4976640.0kbits/s speed=0.654x    frame=  185 fps= 33 q=-0.0 size= 2247750kB time=00:00:03.70 bitrate=4976640.0kbits/s speed=0.654x    frame=  202 fps= 33 q=-0.0 size= 2454300kB time=00:00:04.04 bitrate=4976640.0kbits/s speed=0.654x    frame=  219 fps= 33 q=-0.0 size= 2660850kB time=00:00:04.38 bitrate=4976640.0kbits/s speed=0.653x    frame=  236 fps= 33 q=-0.0 size= 2867400kB time=00:00:04.72 bitrate=4976640.0kbits/s speed=0.653x    frame=  253 fps= 33 q=-0.0 size= 3073950kB time=00:00:05.06 bitrate=4976640.0kbits/s speed=0.653x    frame=  267 fps= 32 q=-0.0 size= 3244050kB time=00:00:05.34 bitrate=4976640.0kbits/s speed=0.647x    frame=  281 fps= 32 q=-0.0 size= 3414150kB time=00:00:05.62 bitrate=4976640.0kbits/s speed=0.64x    frame=  296 fps= 32 q=-0.0 size= 3596400kB time=00:00:05.92 bitrate=4976640.0kbits/s speed=0.638x    frame=  310 fps= 31 q=-0.0 size= 3766500kB time=00:00:06.20 bitrate=4976640.0kbits/s speed=0.63x    frame=  325 fps= 31 q=-0.0 size= 3948750kB time=00:00:06.50 bitrate=4976640.0kbits/s speed=0.624x    frame=  338 fps= 31 q=-0.0 size= 4106700kB time=00:00:06.76 bitrate=4976640.0kbits/s speed=0.617x    frame=  351 fps= 31 q=-0.0 size= 4264650kB time=00:00:07.02 bitrate=4976640.0kbits/s speed=0.61x    frame=  364 fps= 30 q=-0.0 size= 4422600kB time=00:00:07.28 bitrate=4976640.0kbits/s speed=0.606x    frame=  377 fps= 30 q=-0.0 size= 4580550kB time=00:00:07.54 bitrate=4976640.0kbits/s speed=0.602x    frame=  390 fps= 30 q=-0.0 size= 4738500kB time=00:00:07.80 bitrate=4976640.0kbits/s speed=0.599x    frame=  399 fps= 29 q=-0.0 size= 4847850kB time=00:00:07.98 bitrate=4976640.0kbits/s speed=0.589x    frame=  411 fps= 29 q=-0.0 size= 4993650kB time=00:00:08.22 bitrate=4976640.0kbits/s speed=0.584x    frame=  422 fps= 29 q=-0.0 size= 5127300kB time=00:00:08.44 bitrate=4976640.0kbits/s speed=0.578x    frame=  428 fps= 28 q=-0.0 size= 5200200kB time=00:00:08.56 bitrate=4976640.0kbits/s speed=0.566x    frame=  438 fps= 28 q=-0.0 size= 5321700kB time=00:00:08.76 bitrate=4976640.0kbits/s speed=0.56x    frame=  447 fps= 28 q=-0.0 size= 5431050kB time=00:00:08.94 bitrate=4976640.0kbits/s speed=0.553x    frame=  451 fps= 27 q=-0.0 size= 5479650kB time=00:00:09.02 bitrate=4976640.0kbits/s speed=0.54x    frame=  460 fps= 27 q=-0.0 size= 5589000kB time=00:00:09.20 bitrate=4976640.0kbits/s speed=0.533x    frame=  464 fps= 26 q=-0.0 size= 5637600kB time=00:00:09.28 bitrate=4976640.0kbits/s speed=0.521x    frame=  468 fps= 25 q=-0.0 size= 5686200kB time=00:00:09.36 bitrate=4976640.0kbits/s speed=0.501x    frame=  482 fps= 25 q=-0.0 size= 5856300kB time=00:00:09.64 bitrate=4976640.0kbits/s speed=0.503x    frame=  499 fps= 25 q=-0.0 size= 6062850kB time=00:00:09.98 bitrate=4976640.0kbits/s speed=0.506x    frame=  500 fps= 25 q=-0.0 Lsize= 6075000kB time=00:00:10.00 bitrate=4976640.0kbits/s speed=0.506x    
video:6075000kB audio:0kB subtitle:0kB other streams:0kB global headers:0kB muxing overhead: 0.000000%
